<?xml version="1.0" standalone="no"?>
<!DOCTYPE svg PUBLIC "-//W3C//DTD SVG 20010904//EN"
 "http://www.w3.org/TR/2001/REC-SVG-20010904/DTD/svg10.dtd">
<svg version="1.0" xmlns="http://www.w3.org/2000/svg"
 width="225.000000pt" height="225.000000pt" viewBox="0 0 225.000000 225.000000"
 preserveAspectRatio="xMidYMid meet">
<metadata>
Created by potrace 1.11, written by Peter Selinger 2001-2013
</metadata>
<g transform="translate(0.000000,225.000000) scale(0.100000,-0.100000)"
fill="#000000" stroke="none">
<path d="M243 2231 c-99 -34 -170 -99 -216 -198 l-22 -48 0 -860 0 -860 27
-57 c34 -73 103 -142 176 -176 l57 -27 860 0 860 0 57 27 c73 34 142 103 176
176 l27 57 0 860 0 860 -27 57 c-34 73 -103 142 -176 176 l-57 27 -845 2
c-793 2 -848 1 -897 -16z m329 -881 c53 -15 88 -61 88 -116 0 -63 -28 -111
-111 -188 l-71 -66 101 0 101 0 0 -40 0 -40 -165 0 -165 0 0 35 c0 30 10 44
86 117 122 117 149 163 120 203 -19 27 -79 25 -108 -3 l-23 -21 -33 20 c-36
24 -40 39 -14 62 46 42 122 57 194 37z m428 -12 c69 -36 85 -77 85 -218 0 -97
-3 -120 -20 -149 -32 -55 -67 -75 -138 -79 -115 -6 -172 52 -183 189 -9 99 9
180 48 225 50 56 134 69 208 32z m838 -4 c36 -20 52 -52 52 -99 0 -26 -9 -42
-37 -70 -20 -19 -32 -35 -26 -35 5 0 24 -14 41 -31 27 -27 32 -39 32 -79 0
-84 -58 -130 -165 -130 -107 0 -165 46 -165 131 0 42 5 53 35 83 l35 35 -30
30 c-57 56 -28 156 53 181 45 13 140 5 175 -16z m-378 -134 l0 -150 25 0 c23
0 25 -4 25 -40 0 -36 -2 -40 -25 -40 -22 0 -25 -4 -25 -35 0 -35 0 -35 -45
-35 -45 0 -45 0 -45 35 l0 34 -112 3 -113 3 -3 33 c-4 39 -1 45 127 215 l96
127 47 0 48 0 0 -150z"/>
<path d="M869 1254 c-20 -21 -24 -38 -27 -100 -7 -130 16 -184 77 -184 41 0
68 38 77 108 19 150 -55 252 -127 176z"/>
<path d="M1715 1282 c-55 -11 -62 -62 -13 -92 31 -19 33 -19 63 -2 66 39 29
109 -50 94z"/>
<path d="M1689 1071 c-32 -32 -36 -57 -15 -87 17 -23 94 -27 119 -5 28 22 21
66 -14 95 -39 33 -54 33 -90 -3z"/>
<path d="M1302 1138 l-64 -83 62 -3 c34 -2 64 -1 67 1 2 3 3 41 1 86 l-3 81
-63 -82z"/>
</g>
</svg>
